<svg xmlns="http://www.w3.org/2000/svg" viewBox="0 0 500 500">
	<style type="text/css">
		.st0 {
			fill: #6642FA;
		}
		.st1 {
			fill: #ffffff;
		}
		@media (prefers-color-scheme: dark) {
			.st0 {
				fill: #ffffff;
			}
			.st1 {
				fill: #6642FA;
			}
		}
	</style>
<circle class="st0" cx="250.3" cy="250.3" r="250"/>
<path class="st1" d="M254.3,52.7c-9.3,0-15.7,4.3-19.2,12.8l-140,381.1c0,0.1,0,0.1-0.1,0.2c8.1,6.4,16.5,12.3,25.4,17.7
	c1.9-1.7,3.3-4,4.3-6.9c9.7-27.1,26.3-49,50-65.6c23.6-16.6,49.8-25,78.4-25h1.7c28.7,0,54.8,8.3,78.4,25
	c23.6,16.7,40.3,38.5,50,65.6c0.5,1.4,1.2,2.6,1.9,3.8c9.1-5.9,17.8-12.3,26.1-19.3L272.9,65.5C269.8,57,263.6,52.7,254.3,52.7z
	 M304.3,313c-12.4,17.4-29,26.1-50,26.1c-21.3,0-38.2-8.7-50.5-26.1c-12-17-14.5-35.6-7.6-55.8l58.1-162.7l57.5,162.7
	C319.2,277.4,316.7,295.9,304.3,313z"/>
</svg>
