<?xml version="1.0" encoding="utf-8"?>
<!-- Generator: Adobe Illustrator 21.1.0, SVG Export Plug-In . SVG Version: 6.00 Build 0)  -->
<svg version="1.1" id="Layer_1" xmlns="http://www.w3.org/2000/svg" xmlns:xlink="http://www.w3.org/1999/xlink" x="0px" y="0px"
	 width="40px" height="40px" viewBox="0 0 40 40" style="enable-background:new 0 0 40 40;" xml:space="preserve">
	<style type="text/css">
		.st1{opacity:0.15;fill:#000000;}
	</style>
	<path class="st1" d="M0,38.6l2.8-2.8l1.4,1.4L1.4,40H0V38.6z M0,1.4l2.8,2.8l1.4-1.4L1.4,0H0V1.4L0,1.4z
	 M38.6,40l-2.8-2.8l1.4-1.4l2.8,2.8V40H38.6z M40,1.4l-2.8,2.8l-1.4-1.4L38.6,0H40V1.4z M20,18.6l2.8-2.8l1.4,1.4L21.4,20l2.8,2.8
	l-1.4,1.4L20,21.4l-2.8,2.8l-1.4-1.4l2.8-2.8l-2.8-2.8l1.4-1.4L20,18.6L20,18.6z"/>
</svg>
