<?xml version="1.0" encoding="utf-8"?>
<!-- Generator: Adobe Illustrator 24.1.2, SVG Export Plug-In . SVG Version: 6.00 Build 0)  -->
<svg version="1.1" id="Layer_1" xmlns="http://www.w3.org/2000/svg" xmlns:xlink="http://www.w3.org/1999/xlink" x="0px" y="0px"
	 width="270px" height="108px" viewBox="0 0 270 108" style="enable-background:new 0 0 270 108;" xml:space="preserve">
<style type="text/css">
	.st0{fill:#FFFFFF;}
	.st1{fill:#FFBBB9;}
	.st2{fill:#25242B;}
</style>
<path id="logo" class="st0" d="M123.7,52.4c-4.4,0-8.4,1.2-12,3.8s-6.2,5.9-7.7,10.1c-0.4,1.1-1.1,1.6-2.3,1.6
	c-0.8,0-1.5-0.4-1.9-1.1c-0.5-0.6-0.5-1.4-0.3-2.3L120.9,6c0.5-1.3,1.5-1.9,3-1.9s2.4,0.6,2.9,1.9l21.5,58.6
	c0.3,0.8,0.2,1.6-0.3,2.3c-0.5,0.7-1.1,1.1-1.9,1.1c-1.1,0-1.9-0.5-2.3-1.6c-1.5-4.2-4.1-7.5-7.7-10.1s-7.7-3.8-12-3.8h-0.4v0.1h0
	V52.4z M131.5,44.1c1.9-2.7,2.3-5.5,1.2-8.6l-8.9-25l-8.9,25c-1.1,3.1-0.7,6,1.1,8.6c1.9,2.7,4.5,4,7.8,4
	C127,48.1,129.6,46.7,131.5,44.1z M157.8,66.8c-0.4,0.8-1.1,1.1-1.9,1.1c-0.9,0-1.6-0.4-2.1-1.1c-0.5-0.8-0.5-1.6,0-2.4L164,47.3
	c2.3-3.8,3.4-7.8,3.4-12.1s-1.1-8.4-3.3-12.1l-9-15.5c-0.5-0.8-0.5-1.6-0.1-2.3c0.5-0.8,1.1-1.1,2.1-1.1h0.2c0.9,0,1.6,0.4,2.1,1.1
	l10.4,18.2c0.9,1.7,2.3,2.5,4.2,2.5s3.3-0.8,4.3-2.5l10.4-18.2c0.4-0.8,1.1-1.1,1.9-1.1h0.2c0.9,0,1.6,0.4,1.9,1.1
	c0.5,0.8,0.5,1.6,0,2.3l-8.9,15.3c-2.2,3.8-3.3,7.9-3.3,12.2c0.1,4.4,1.2,8.5,3.5,12.1l10.3,17.1c0.4,0.8,0.4,1.6,0,2.4
	c-0.5,0.8-1.2,1.1-2.1,1.1H192c-0.9,0-1.6-0.4-1.9-1.1L178,46.5c-0.9-1.6-2.3-2.3-4.2-2.3c-1.8,0-3.2,0.8-4.1,2.3L157.8,66.8z
	 M210.8,6.4v59c0,1.6-0.8,2.4-2.4,2.4S206,67,206,65.4v-59c0-1.6,0.8-2.4,2.4-2.4S210.8,4.8,210.8,6.4z M226.4,5.9
	c0-1.5,0.7-2.1,2.1-2.1h19.7c6.3,0,11.6,2.2,16,6.5c2.7,2.8,4.4,6,5.2,9.7c0.5,2.8,0.7,8.1,0.7,16.2s-0.3,13.5-0.7,16.3
	c-0.7,3.8-2.4,7-5.2,9.7c-4.3,4.3-9.7,6.5-16,6.5s-11.6-2.2-16-6.5c-2.7-2.8-4.4-6-5.1-9.7c-0.5-2.8-0.8-8.2-0.8-16.3L226.4,5.9
	L226.4,5.9z M248.2,64.5c4.8,0,8.8-1.6,12.1-4.9c2.1-2.2,3.5-5,4.2-8.3c0.5-2.7,0.7-7.6,0.7-15s-0.3-12.3-0.7-15
	c-0.6-3.2-2.1-6-4.2-8.2c-3.3-3.2-7.4-4.9-12.1-4.9c-4.8,0-8.8,1.6-12,4.9c-2.2,2.2-3.6,5-4.2,8.2c-0.5,2.7-0.8,7.7-0.8,15
	c0,7.4,0.3,12.4,0.8,15c0.5,3.4,2,6.1,4.2,8.3C239.5,62.9,243.5,64.5,248.2,64.5z M81.3,17.1C75.5,8.6,66.8,2.9,56.8,0.9
	c-5.6-1.1-11.2-1.1-16.6-0.2c-0.1,0-0.2,0-0.3,0.1C20.9,4,5,18.8,1.2,38.8C-1.2,51.7,0.7,64.5,6,75.4c-0.1,0.3,0,0.5,0.2,0.6
	c7.9,16.1,23.1,28.5,42,32.1c0.1,0,0.2,0,0.3,0l0,0c0.1,0,0.1,0,0.2,0h0.1c0.1,0,0.1,0,0.1-0.1c0,0,0.1,0,0.1-0.1
	c0.1,0,0.1-0.1,0.1-0.1l0.1-0.1H49c0,0,0,0,0.1-0.1s0.1-0.1,0.1-0.1l0.1-0.1c0.1-0.1,0.1-0.1,0.1-0.1l0.1-0.1
	c0.1-0.1,0.1-0.1,0.1-0.2v-0.1c0-0.1,0.3-0.6,0.1-1.1c-0.1-0.1-0.3-0.6-0.3-0.6c-6.5-9.6-6.5-20.8-5.2-28.6c0.3-1.3,1.7-6.4,9.4-6
	l0.1,0.1c7.2,0.7,14.4-1.1,20.4-5.2c6.9-4.7,11.4-11.7,13-19.9C89.1,35.8,87.1,25.6,81.3,17.1z M37.3,34.3L37.3,34.3L37.3,34.3
	C37.3,34.2,37.3,34.2,37.3,34.3c0.3-0.4,3-3.5,7-4c0.1,0,0.1,0,0.3-0.1c1.6,0,3,0.3,4.2,1c0.7,0.4,1.2,0.9,1.8,1.5
	c0.1,0.2,2.2,1.7-0.9,2.4l0,0c-3.1,1-5.5,3.6-6.1,7c-0.5,3,0.3,5.9,1.9,8.3c0,0,1,1.6,1,5.5V56c0,1.9-0.6,4.3,0.3,7.5l0,0
	c0,0,1.4,3.6-2.3,1.6c-2.8-1.6-5.1-4-7-6.7c-3.3-4.9-4.6-10.9-3.5-16.7C34.5,39.1,35.6,36.5,37.3,34.3z M52.8,52.4
	c-2.1-0.4-4-1.6-5.3-3.5c-1.3-1.8-1.7-4-1.2-6.2c0.6-3.4,4.8-5.2,7.7-5.2c2.8,0,5.2,1.5,6.7,4.1c1.5,2.7,2.1,6.2-1.1,9.1
	C57.8,52.3,55.1,52.9,52.8,52.4z M57,35.4L57,35.4c-1.2-0.8-2.8-2.2-3-2.6c0,0-0.1,0-0.1-0.1l0,0l0,0c-0.8-1.2-1.9-2.9-3.8-4
	c-0.7-0.4-1.5-0.8-2.3-1c2.1-0.4,4.3-0.4,6.5,0c6.5,1.2,11,6.8,11.1,13.2C65.3,47,64,42.8,64,42.8l0,0c-0.3-1-0.5-1.8-0.9-2.5
	C61.6,37.8,59.5,36.1,57,35.4z M78.9,18.8c0.8,1.1,1.5,2.3,2.1,3.4c1.1,2.1,5,10.9-1.1,17.4c-1.6,1.3-2.4,2.2-3.8,2.8
	C71,43.8,68.9,36,68.9,36l0,0c-1.9-3.4-4-6.3-6.8-8.3c-2-1.9-3.1-4.4-3.2-6.1c0.1-3.8-0.6-9-3.6-13.3c-0.4-0.6-1-1.2-1.6-1.8
	c-0.1-0.4-0.8-3.4,4-2.5C66.3,6.1,73.8,11.3,78.9,18.8z M3.9,39.5C7.3,21.6,21,8.2,37.6,4.2c2.1-0.3,4.8-0.3,7.6,0.5
	c3.2,1.1,5.7,2.9,7.4,5.4c1.2,1.6,1.9,3.5,2.3,5.4c0.1,0.5,0.9,6.2-6.3,9.5l0,0c-3.2,0.4-6.5,1.5-9.1,3.4c-3.3,2.3-5.6,5.4-7.5,9
	l0,0c-1.2,5-4.8,7.1-6.3,7.9c-0.9,0.5-3.4,1.8-4.9,3c-2.4,1.6-5.1,4.2-7.7,7.3l0,0C6,66.9,3.8,59.2,3.6,58.3
	C2.6,52,2.8,45.9,3.9,39.5z M14.4,84c-5.5-7.1-4.5-13.8-3.6-16.8c2.4-7.2,6.4-12.9,11.6-16.7c0.4-0.3,0.8-0.5,1.2-0.8
	c0.3-0.1,6.4-4,7.8,1.9c0,0.1,0.1,0.2,0.1,0.3c0,0,0,0,0,0.1l0,0c0.7,2.9,1.9,5.6,3.6,8.2c1.4,2,3,3.8,4.8,5.3
	c1.1,1.2,2.8,3.8,2.1,8.4c-0.1,0.5-0.1,1.1-0.2,1.4c-0.9,5.1-1.5,12.2,0,19.5l0,0l0,0c0.2,0.9,0.4,1.8,0.7,2.7
	c0.5,2.7,0.5,6.3-3,5.5c-0.8-0.3-1.6-0.6-2.4-0.9c-1.7-0.9-2.8-1.5-3.6-1.7C25.9,96.2,19.4,90.7,14.4,84z M72.6,63.4
	c-4.2,2.9-9,4.5-14,4.8c-0.3,0-0.5-0.1-0.8-0.1c-5-0.3-7-2.5-7.6-3.5c-0.5-1-0.9-1.9-1.1-2.9l0,0c0,0-2-5.8,5.6-6.4
	c0.4,0,0.8-0.1,1.2-0.1c0,0,0,0,0.1,0l0,0c1.8-0.2,3.6-0.7,5.1-1.6c0.1,0,2.4-1.5,2.4-1.5c0.8-0.6,6.3-5.1,12-7l0,0
	c0.4-0.1,0.9-0.3,1.4-0.5c0.7-0.3,1.5-0.5,1.9-0.8c0.6-0.3,1.6-0.9,2.2-1.3c0.6-0.4,4.6-3.5,4,0.9c0,0-0.2,1-0.4,1.8
	C83,53.1,78.9,59.1,72.6,63.4z"/>
<path id="v2-bg" class="st1" d="M86.7,92.3c0,9.5-4.7,14.3-14.2,14.3s-14.2-4.8-14.2-14.3S63,78,72.5,78S86.7,82.7,86.7,92.3z"/>
<path class="st2" d="M72.9,89.8L68.5,97h-2.1l-1.6-7.2h2.1l1,4.9l3-4.9H72.9z M80,89.1l-2.6,2.4c0.6,0.2,1.2,0.4,1.5,0.8
	s0.5,0.9,0.5,1.5c0,0.6-0.2,1.2-0.6,1.7s-0.9,0.9-1.5,1.2c-0.7,0.3-1.4,0.4-2.2,0.4c-0.7,0-1.3-0.1-1.9-0.3s-1.1-0.5-1.5-0.8l1-1.6
	c0.3,0.3,0.7,0.5,1.1,0.6s0.9,0.2,1.4,0.2c0.6,0,1.1-0.1,1.5-0.4c0.3-0.2,0.5-0.6,0.5-1c0-0.3-0.1-0.6-0.4-0.8
	c-0.3-0.2-0.6-0.2-1.2-0.2h-1l0.3-1.4l2.3-2.2h-4l0.4-1.7h6.5L80,89.1z"/>
</svg>
