<?xml version="1.0" encoding="utf-8"?>
<!-- Generator: Adobe Illustrator 21.1.0, SVG Export Plug-In . SVG Version: 6.00 Build 0)  -->
<svg version="1.1" id="Layer_1" xmlns="http://www.w3.org/2000/svg" xmlns:xlink="http://www.w3.org/1999/xlink" x="0px" y="0px"
	 width="150px" height="60px" viewBox="0 0 150 60" style="enable-background:new 0 0 150 60;" xml:space="preserve">
<style type="text/css">
	.st0{fill:#FFFFFF;}
</style>
<path class="st0" d="M68.7,29.1c-2.4,0-4.7,0.7-6.7,2.1c-2,1.4-3.5,3.3-4.3,5.6c-0.2,0.6-0.6,0.9-1.3,0.9c-0.5,0-0.8-0.2-1.1-0.6
	c-0.3-0.4-0.3-0.8-0.2-1.3L67.1,3.3c0.3-0.7,0.8-1.1,1.7-1.1c0.8,0,1.3,0.4,1.6,1.1l11.9,32.5c0.2,0.5,0.1,0.9-0.2,1.3
	c-0.3,0.4-0.6,0.6-1.1,0.6c-0.6,0-1.1-0.3-1.3-0.9c-0.8-2.3-2.3-4.2-4.3-5.6c-2-1.4-4.3-2.1-6.7-2.1L68.7,29.1L68.7,29.1L68.7,29.1z
	 M73,24.4c1.1-1.5,1.3-3,0.7-4.8L68.8,5.8l-5,13.9c-0.6,1.7-0.4,3.3,0.6,4.8c1.1,1.5,2.5,2.2,4.3,2.2C70.5,26.7,72,25.9,73,24.4z
	 M87.6,37c-0.2,0.4-0.6,0.6-1.1,0.6c-0.5,0-0.9-0.2-1.1-0.6c-0.3-0.5-0.3-0.9,0-1.3l5.6-9.5c1.3-2.1,1.9-4.3,1.9-6.7
	s-0.6-4.7-1.9-6.7l-5-8.6c-0.3-0.4-0.3-0.9,0-1.3c0.3-0.4,0.6-0.6,1.1-0.6h0.1c0.5,0,0.9,0.2,1.1,0.6L94.2,13
	c0.5,0.9,1.3,1.4,2.3,1.4c1.1,0,1.9-0.5,2.4-1.4l5.8-10.1c0.2-0.4,0.6-0.6,1.1-0.6h0.1c0.5,0,0.9,0.2,1.1,0.6c0.3,0.4,0.3,0.9,0,1.3
	l-5,8.5c-1.2,2.1-1.9,4.4-1.9,6.8c0,2.4,0.7,4.7,1.9,6.7l5.7,9.5c0.2,0.4,0.2,0.9,0,1.3c-0.3,0.4-0.7,0.6-1.1,0.6h-0.1
	c-0.5,0-0.9-0.2-1.1-0.6l-6.6-11.2c-0.5-0.9-1.3-1.3-2.3-1.3c-1,0-1.8,0.4-2.3,1.3L87.6,37z M117.1,3.6v32.7c0,0.9-0.5,1.3-1.3,1.3
	s-1.3-0.5-1.3-1.3V3.6c0-0.9,0.5-1.3,1.3-1.3S117.1,2.7,117.1,3.6z M125.8,3.3c0-0.8,0.4-1.2,1.2-1.2h10.9c3.5,0,6.5,1.2,8.9,3.6
	c1.5,1.5,2.4,3.3,2.9,5.4c0.3,1.5,0.4,4.5,0.4,9s-0.2,7.5-0.4,9c-0.4,2.1-1.4,3.9-2.9,5.4c-2.4,2.4-5.4,3.6-8.9,3.6
	c-3.5,0-6.4-1.2-8.9-3.6c-1.5-1.5-2.4-3.3-2.8-5.4c-0.3-1.5-0.5-4.5-0.5-9L125.8,3.3L125.8,3.3z M137.9,35.8c2.6,0,4.9-0.9,6.7-2.7
	c1.2-1.2,2-2.8,2.3-4.6c0.3-1.5,0.4-4.2,0.4-8.3c0-4.1-0.2-6.8-0.4-8.3c-0.4-1.8-1.1-3.3-2.3-4.6c-1.9-1.8-4.1-2.7-6.7-2.7
	c-2.6,0-4.9,0.9-6.7,2.7c-1.2,1.2-2,2.8-2.3,4.6c-0.3,1.5-0.5,4.3-0.5,8.3c0,4.1,0.2,6.9,0.5,8.3c0.3,1.9,1.1,3.4,2.3,4.6
	C133,34.9,135.3,35.8,137.9,35.8z M45.1,9.5c-3.2-4.7-8-7.9-13.6-9c-3.1-0.6-6.2-0.6-9.2-0.1c-0.1,0-0.1,0-0.2,0
	C11.6,2.3,2.7,10.5,0.6,21.6c-1.4,7.1-0.3,14.2,2.7,20.3c0,0.1,0.1,0.2,0.2,0.2c4.4,8.9,12.8,15.8,23.3,17.8c0,0,0.1,0,0.2,0l0,0
	c0,0,0.1,0,0.1,0h0c0,0,0.1,0,0.1,0c0,0,0,0,0,0c0,0,0,0,0.1,0l0,0h0c0,0,0,0,0,0c0,0,0,0,0.1-0.1l0,0c0,0,0,0,0.1-0.1l0,0
	c0,0,0-0.1,0-0.1v0c0,0,0.2-0.4,0-0.6c0-0.1-0.2-0.4-0.2-0.4c-3.6-5.3-3.6-11.5-2.9-15.8c0.2-0.7,0.9-3.5,5.2-3.3l0,0
	c4,0.4,8-0.6,11.3-2.9c3.8-2.6,6.4-6.5,7.2-11C49.5,19.8,48.3,14.2,45.1,9.5z M20.7,19L20.7,19L20.7,19C20.7,19,20.7,19,20.7,19
	c0.2-0.2,1.7-1.9,3.9-2.2c0,0,0.1,0,0.2,0c0.9,0,1.7,0.2,2.3,0.6c0.4,0.2,0.7,0.5,1,0.8c0.1,0.1,1.2,0.9-0.5,1.4l0,0
	c-1.7,0.6-3,2-3.4,3.9c-0.3,1.7,0.2,3.3,1.1,4.6c0,0,0.6,0.9,0.6,3.1v0c0,1.1-0.4,2.4,0.2,4.1l0,0c0,0,0.8,2-1.3,0.9
	c-1.5-0.9-2.9-2.2-3.9-3.7c-1.9-2.7-2.6-6-1.9-9.3C19.1,21.6,19.7,20.2,20.7,19z M29.3,29.1c-1.2-0.2-2.2-0.9-2.9-1.9
	c-0.7-1-0.9-2.2-0.7-3.4c0.4-1.9,2.6-2.9,4.3-2.9c1.5,0,2.9,0.8,3.7,2.3c0.8,1.5,1.1,3.4-0.6,5.1C32.1,29,30.6,29.3,29.3,29.1z
	 M31.6,19.6L31.6,19.6c-0.7-0.5-1.5-1.2-1.7-1.4c0,0,0,0,0,0l0,0l0,0c-0.4-0.7-1.1-1.6-2.1-2.2c-0.4-0.2-0.8-0.4-1.3-0.6
	c1.2-0.2,2.4-0.2,3.6,0c3.6,0.7,6.1,3.8,6.2,7.3c-0.1,3.4-0.8,1.1-0.8,1.1l0,0c-0.2-0.6-0.3-1-0.5-1.4C34.2,20.9,33,20,31.6,19.6z
	 M43.8,10.4c0.4,0.6,0.8,1.3,1.1,1.9c0.6,1.2,2.8,6.1-0.6,9.7c-0.9,0.7-1.3,1.2-2.1,1.5c-2.8,0.8-4-3.5-4-3.5l0,0
	c-1.1-1.9-2.2-3.5-3.8-4.6c-1.1-1.1-1.7-2.4-1.8-3.4c0.1-2.1-0.4-5-2-7.4c-0.2-0.4-0.6-0.7-0.9-1c-0.1-0.2-0.5-1.9,2.2-1.4
	C36.8,3.4,41,6.3,43.8,10.4z M2.2,21.9C4.1,12,11.6,4.5,20.9,2.4c1.2-0.2,2.6-0.2,4.2,0.3c1.8,0.6,3.2,1.6,4.1,3
	c0.7,0.9,1.1,2,1.3,3c0.1,0.3,0.5,3.4-3.5,5.3l0,0c-1.8,0.2-3.6,0.8-5.1,1.9c-1.9,1.3-3.1,3-4.2,5l0,0c-0.7,2.8-2.7,4-3.5,4.4
	c-0.5,0.3-1.9,1-2.7,1.7c-1.4,0.9-2.9,2.3-4.3,4.1l0,0c-4,6.3-5.2,2-5.3,1.5C1.4,28.8,1.5,25.4,2.2,21.9z M8,46.6
	c-3-4-2.5-7.7-2-9.3c1.4-4,3.5-7.2,6.4-9.3c0.2-0.2,0.5-0.3,0.7-0.5c0.2-0.1,3.5-2.2,4.3,1.1c0,0.1,0,0.1,0,0.2c0,0,0,0,0,0l0,0
	c0.4,1.6,1.1,3.1,2,4.5c0.8,1.1,1.7,2.1,2.6,2.9c0.6,0.7,1.6,2.1,1.2,4.7c0,0.3-0.1,0.6-0.1,0.8c-0.5,2.9-0.8,6.8,0,10.8l0,0l0,0
	c0.1,0.5,0.2,1,0.4,1.5c0.3,1.5,0.3,3.5-1.7,3c-0.5-0.2-0.9-0.4-1.3-0.5c-0.9-0.5-1.6-0.8-2-0.9C14.4,53.3,10.7,50.3,8,46.6z
	 M40.3,35.2c-2.3,1.6-5,2.5-7.8,2.7c-0.2,0-0.3,0-0.4,0c-2.8-0.2-3.9-1.4-4.2-1.9c-0.3-0.6-0.5-1.1-0.6-1.6l0,0c0,0-1.1-3.2,3.1-3.5
	c0.2,0,0.4,0,0.7,0c0,0,0,0,0,0l0,0c1-0.1,2-0.4,2.9-0.9c0,0,1.3-0.8,1.3-0.8c0.4-0.4,3.5-2.9,6.7-3.9l0,0c0.2-0.1,0.5-0.2,0.8-0.3
	c0.4-0.2,0.8-0.3,1.1-0.4c0.4-0.2,0.9-0.5,1.2-0.7c0.4-0.2,2.6-2,2.2,0.5c0,0-0.1,0.6-0.2,1C46.1,29.5,43.8,32.8,40.3,35.2z"/>
</svg>
