<?xml version="1.0" encoding="utf-8"?>
<!-- Generator: Adobe Illustrator 19.0.0, SVG Export Plug-In . SVG Version: 6.00 Build 0)  -->
<svg version="1.1" id="Слой_1" xmlns="http://www.w3.org/2000/svg" xmlns:xlink="http://www.w3.org/1999/xlink" x="0px" y="0px"
	 viewBox="0 0 500 500" style="enable-background:new 0 0 500 500;" xml:space="preserve">
<style type="text/css">
	.st0{fill:#FFFFFF;}
</style>
<path id="XMLID_3_" class="st0" d="M422.9,78.6c-26.7-39.3-67.1-65.8-113.8-74.6c-26.1-5-52.1-5.1-76.9-1c-0.5,0-0.9,0.1-1.4,0.2
	c-88.1,15.1-162,83.4-179.6,176.3C39.8,239.1,48.8,298,73.3,348.9c0.2,0.8,0.6,1.5,1,2.2c36.7,74.8,106.9,132.1,194.9,148.8
	c0.4,0.1,0.8,0.1,1.3,0.1c0,0,0.1,0,0.1,0c0.3,0,0.6,0,0.9-0.1c0.1,0,0.3-0.1,0.4-0.1c0.2,0,0.4-0.1,0.7-0.2c0.1,0,0.3-0.1,0.4-0.2
	c0.2-0.1,0.4-0.2,0.6-0.3c0.1-0.1,0.3-0.2,0.4-0.2c0.1,0,0.2-0.1,0.2-0.1c0.1,0,0.1-0.1,0.2-0.2c0.2-0.2,0.4-0.3,0.6-0.5
	c0.1-0.1,0.2-0.2,0.3-0.3c0.2-0.2,0.3-0.4,0.5-0.6c0.1-0.1,0.2-0.2,0.2-0.3c0.2-0.3,0.3-0.5,0.4-0.8c0-0.1,0.1-0.2,0.1-0.3
	c0.1-0.3,0.5-3.1,0.1-5c-0.1-0.4-1.2-3-1.2-3c-30.1-44.4-29.6-96-24-132.2c1.1-6.2,7.8-29.7,43.7-28.1c0.1,0,0.2,0.2,0.3,0.2
	c33.4,3.3,66.7-5,94.8-24.1c31.7-21.6,53.1-54.2,60.3-91.8C459.4,165.1,449.6,117.8,422.9,78.6z M218.9,158.1L218.9,158.1
	c0,0,0-0.1,0.1-0.2c0,0,0,0,0,0c1.4-1.8,13.4-15.8,32.4-18.3c0.4,0,0.7-0.1,1-0.2c7.3-0.1,13.7,1.4,19.2,4.7
	c3.2,1.9,5.7,4.3,7.9,6.8c0.7,0.9,11.4,8-4.6,11.4c0,0,0,0,0,0c-15,4.8-25,16.7-28,32.3c-2.6,13.5,1,27.2,8.8,38.6
	c0,0,4.2,7.5,4.2,25.6v0.4c0,8.8-2.2,18.9,2.2,33.9h0c0,0,6.4,17-10.4,7.8c-12.8-7.6-23.8-18.2-32.4-30.8
	c-15.5-22.7-21.1-50.2-16-77.2C205.7,180,211.1,168.1,218.9,158.1z M290.7,241.7c-10-1.9-18.7-7.6-24.4-16s-7.9-18.6-5.9-28.6
	c3-15.8,22.1-24.2,35.4-24.2c12.9,0,24.2,6.9,31,19c6.9,12.1,9.5,28.6-5.1,42.3C314,241.4,301.7,243.8,290.7,241.7z M312,163.1
	C312,163.1,312,163.1,312,163.1c-8-3.9-13.7-10.2-14.7-11.9c-0.1-0.1-0.6-0.1-0.7-0.3c0,0-0.5,0-0.5,0h0c-3.6-7-9.1-13.2-17.5-18.1
	c-3.3-2-6.8-3.5-10.5-4.6c9.8-1.8,19.9-1.8,29.9,0.1c29.8,5.7,50.8,31.5,51.6,60.6c-1,28.2-6.6,8.7-6.6,8.7l0,0
	c-1.1-4.5-1.7-8.4-3.6-11.7C332.6,174.1,323,166.7,312,163.1z M411.8,86c3.5,5.1,6.6,10.3,9.5,15.7c5.1,9.9,23.2,50.4-4.8,80.5
	c-7.2,6.2-11.2,10.2-18,12.9c-23.4,6.5-33.5-29.3-33.5-29.3v0c-8-15.3-18.3-28.7-31.6-38c-9.4-9-14-20.4-15-28.3
	c0.5-17.7-2.9-41.5-16.8-61.4c-2.1-3-4.8-5.7-7.2-8.4c-0.5-1.7-3.8-15.7,18.5-11.5C353.5,27.6,388.3,51.5,411.8,86z M64.2,181.9
	c15.7-82.8,79-144.7,156.1-163c10-1.3,22-1.3,35.1,2.2c14.9,5,26.4,13.2,34.4,24.6c5.4,7.7,8.8,16.2,10.8,24.7
	c0.4,2.5,4.1,28.4-29.3,43.8c0,0,0,0,0,0c-14.7,1.8-29.3,7.1-41.9,15.7C214,140.3,203,154.7,195,171.5c0,0,0,0,0,0
	c-7,22.9-23.1,33-29.8,36.7c-4.2,2.2-16,8.1-22.9,13.2c-11.1,8.1-24.1,20.7-35.7,33.7h0c-33.1,53-42.9,17.2-44,13
	C58.3,239.5,58.5,211.8,64.2,181.9z M112.8,388.2c-25.3-33.2-20.9-64-16.9-77.7c11.5-33.5,29.6-59.8,53.4-77.4
	c1.9-1.4,3.8-2.7,5.7-3.9c1-0.7,29.6-18.6,36.2,8.6c0.1,0.5,0.2,1,0.3,1.5c0,0.1,0,0.1,0,0.2c0,0,0,0,0,0c3.3,13.3,8.9,26,16.8,37.7
	c6.3,9.3,13.8,17.4,22.2,24.3c5.3,5.5,13.1,17.6,9.9,38.9c-0.4,2.7-0.6,4.8-0.8,6.4c-4.4,24-7.1,56.4,0,90l0,0c0,0,0,0,0,0
	c0.9,4.2,1.9,8.4,3.2,12.6c2.3,12.5,2.5,29.1-13.9,25.3c-3.7-1.4-7.3-2.9-10.9-4.4c-7.8-4.1-13.1-6.6-16.7-7.8
	C166.2,444.5,136.1,418.9,112.8,388.2z M382.8,292.7C363.2,306,341,313.5,318,315c-1.1-0.1-2.3-0.2-3.6-0.3
	c-23.1-1.5-32.2-11.5-35.1-15.9c-2.3-4.7-4-9.1-5.2-13.3l0,0c0,0-9.4-27.1,26-30c1.8,0,3.6-0.6,5.4-0.6c0.1,0,0.1,0,0.2,0
	c0,0,0,0.3,0,0.3c8.5-0.8,16.6-3.1,23.9-7.1c0.2-0.1,11.1-6.9,11.2-7c3.6-3,29.1-23.7,55.5-32.5l0,0c2.2-0.7,4.2-1.5,6.4-2.4
	c3.1-1.2,7.1-2.4,8.9-3.5c2.8-1.5,7.4-3.9,10.2-6c3-2.1,21.1-16.2,18.7,4c0,0-0.9,4.7-1.8,8.5C430.9,245,411.5,273.1,382.8,292.7z"
	/>
</svg>
