<?xml version="1.0" encoding="utf-8"?>
<!-- Generator: Adobe Illustrator 21.1.0, SVG Export Plug-In . SVG Version: 6.00 Build 0)  -->
<svg version="1.1" id="Layer_1" xmlns="http://www.w3.org/2000/svg" xmlns:xlink="http://www.w3.org/1999/xlink" x="0px" y="0px"
	 width="80px" height="82px" viewBox="0 0 80 82" style="enable-background:new 0 0 80 82;" xml:space="preserve">
<style type="text/css">
	.st0{fill:#FFFFFF;}
</style>
<path class="st0" d="M67.7,1H12.3c-3,0-5.7,2.5-5.7,5.7v12.4V21v54.3c0,3,2.5,5.7,5.7,5.7h55.4c3,0,5.7-2.5,5.7-5.7V20.8v-1.9V6.7
	C73.4,3.5,71,1,67.7,1z M71.3,75.3c0,2.1-1.5,3.8-3.6,3.8H12.3c-2.1,0-3.8-1.7-3.8-3.8V20.8h62.9L71.3,75.3z M8.7,18.9V6.7
	c0-2.1,1.7-3.8,3.8-3.8h55.4c2.1,0,3.8,1.7,3.8,3.8v12.4L8.7,18.9L8.7,18.9z M18.4,6C15.5,6,13,8.2,13,11.3c0,2.9,2.3,5.3,5.3,5.3
	s5.3-2.3,5.3-5.3C23.5,8.2,21.2,6,18.4,6z M18.4,14.5c-1.9,0-3.4-1.5-3.4-3.4s1.5-3.4,3.4-3.4s3.4,1.5,3.4,3.4S20.1,14.5,18.4,14.5z
	 M31.3,6C28.5,6,26,8.2,26,11.3c0,2.9,2.3,5.3,5.3,5.3c2.9,0,5.3-2.3,5.3-5.3S34.2,6,31.3,6z M31.3,14.5c-1.9,0-3.4-1.5-3.4-3.4
	s1.5-3.4,3.4-3.4c1.9,0,3.4,1.5,3.4,3.4S33.2,14.5,31.3,14.5z M44.5,6c-2.9,0-5.3,2.3-5.3,5.3c0,2.9,2.3,5.3,5.3,5.3
	c3,0,5.3-2.3,5.3-5.3C49.6,8.2,47.3,6,44.5,6z M44.5,14.5c-1.9,0-3.4-1.5-3.4-3.4s1.5-3.4,3.4-3.4s3.4,1.5,3.4,3.4
	S46.2,14.5,44.5,14.5z M66.2,6.9h-5.5c-0.6,0-1,0.4-1,1s0.4,1,1,1h5.5c0.6,0,1-0.4,1-1S66.8,6.9,66.2,6.9z M20.9,45.8h38.5
	c1.7,0,3-1.3,3-3v-6.5c0-1.7-1.3-3-3-3H20.9c-1.7,0-3,1.3-3,3v6.5C17.8,44.4,19.1,45.8,20.9,45.8z M19.7,36.2c0-0.6,0.6-1.1,1.1-1.1
	h38.5c0.6,0,1.1,0.6,1.1,1.1v6.5c0,0.6-0.6,1.1-1.1,1.1H20.9c-0.6,0-1.1-0.6-1.1-1.1V36.2z M20.9,63.7h38.5c1.7,0,3-1.3,3-3v-6.5
	c0-1.7-1.3-3-3-3H20.9c-1.7,0-3,1.3-3,3v6.5C17.8,62.1,19.1,63.7,20.9,63.7z M19.7,54c0-0.6,0.6-1.1,1.1-1.1h38.5
	c0.6,0,1.1,0.6,1.1,1.1v6.5c0,0.6-0.6,1.1-1.1,1.1H20.9c-0.6,0-1.1-0.6-1.1-1.1V54z"/>
</svg>
