<?xml version="1.0" encoding="utf-8"?>
<!-- Generator: Adobe Illustrator 21.1.0, SVG Export Plug-In . SVG Version: 6.00 Build 0)  -->
<svg version="1.1" id="Layer_1" xmlns="http://www.w3.org/2000/svg" xmlns:xlink="http://www.w3.org/1999/xlink" x="0px" y="0px"
	 width="80px" height="82px" viewBox="0 0 80 82" style="enable-background:new 0 0 80 82;" xml:space="preserve">
<style type="text/css">
	.st0{fill:#1B1D2C;}
</style>
<path class="st0" d="M41,38.4c6.5,0,11.9-5.3,11.9-11.9S47.5,14.7,41,14.7S29.1,20,29.1,26.6C29.1,33.3,34.4,38.4,41,38.4z M41,17
	c5.3,0,9.8,4.3,9.8,9.8c0,5.3-4.3,9.8-9.8,9.8c-5.3,0-9.8-4.3-9.8-9.8S35.4,17,41,17z M78.4,78.7L66.1,49.9c-0.4-1.2-1.6-2-2.9-2
	h-5.1c4.5-8,8-16,8-21.3C66.1,12.5,54.7,1,40.5,1S15,12.5,15,26.6c0,5.3,3.5,13.3,8,21.3h-6.3c-1.2,0-2.5,0.8-2.9,2L1.5,78.7
	c-0.4,1,0.4,2.3,1.6,2.3h36.6h36.6C78,81,78.8,79.8,78.4,78.7z M17.2,26.6C17.2,13.7,27.9,3,40.7,3s23.5,10.6,23.5,23.5
	c0,4.7-3.5,12.7-8.2,21.3c-0.4,0.6-0.8,1.4-1.2,2c-4.1,7.2-9.2,14.7-14.1,21.5c-4.9-6.8-10-14.3-14.1-21.5c-0.4-0.6-0.8-1.4-1.2-2
	C20.5,39.5,17.2,31.5,17.2,26.6z M40.1,79H3.9L16,50.5c0.2-0.4,0.4-0.6,0.8-0.6h7.4c5.7,10,12.5,19.4,15.1,23.3
	c0.4,0.4,0.8,0.6,1.2,0.6c0.4,0,1-0.2,1.2-0.6c2.7-3.7,9.4-13.3,15.1-23.3h6.3c0.4,0,0.8,0.2,0.8,0.6L76.1,79H40.1z"/>
</svg>
