<?xml version="1.0" encoding="utf-8"?>
<!-- Generator: Adobe Illustrator 21.1.0, SVG Export Plug-In . SVG Version: 6.00 Build 0)  -->
<svg version="1.1" id="Layer_1" xmlns="http://www.w3.org/2000/svg" xmlns:xlink="http://www.w3.org/1999/xlink" x="0px" y="0px"
	 width="80px" height="80px" viewBox="0 0 80 80" style="enable-background:new 0 0 80 80;" xml:space="preserve">
<style type="text/css">
	.st0{fill:#1B1D2C;}
</style>
<path class="st0" d="M56.3,47.2l-7.8-20.8l2.9-22.9c0.2-1-0.2-1.7-0.8-2.5c-0.6-0.6-1.4-1-2.3-1H31.8c-1,0-1.7,0.4-2.3,1
	c-0.6,0.6-0.8,1.6-0.8,2.5l2.9,22.7l-7.8,21c-0.6,1.7-0.4,3.5,0.6,5l14.4,21c0.2,0.4,0.8,0.6,1.2,0.6l0,0c0.4,0,1-0.2,1.2-0.6
	l14.4-21C56.7,50.5,57.1,48.5,56.3,47.2z M30.5,3.3c0-0.4,0-0.8,0.4-1c0.2-0.2,0.6-0.4,1-0.4h16.5c0.4,0,0.8,0.2,1,0.4
	c0.2,0.2,0.4,0.6,0.4,1L47,25.4H33.6L30.5,3.3z M40.1,44.9c-2.1,0-4.1-1.7-4.1-4.1c0-2.3,1.7-4.1,4.1-4.1c2.1,0,4.1,1.7,4.1,4.1
	C44.2,43.1,42.1,44.9,40.1,44.9z M54.2,51.1l-13,19V46.6c2.7-0.6,4.8-3,4.8-5.9c0-3.3-2.7-5.8-5.8-5.8s-5.8,2.7-5.8,5.8
	c0,2.9,2.2,5.5,5.1,5.9v23.5l-13.2-19c-0.6-1-0.8-2.1-0.4-3.3l7.6-20.6H47l7.6,20.6C54.8,48.9,54.8,50.1,54.2,51.1z M70.7,71.8h-3.9
	c-1.2,0-2.1,1-2.1,2.1v1H51.8c15.1-5,26-19.2,26-35.9c0-0.6-0.4-1-1-1c-0.6,0-1,0.4-1,1C75.9,58.8,59.8,75,40,75S4.1,58.8,4.1,39
	c0-0.6-0.4-1-1-1s-1,0.4-1,1c0,16.7,10.9,30.9,26,35.9H15.3v-1c0-1.2-1-2.1-2.1-2.1H9.3c-1.2,0-2.1,1-2.1,2.1v3.9
	c0,1.2,1,2.1,2.1,2.1h3.9c1.2,0,2.1-1,2.1-2.1v-1h49.1v1c0,1.2,1,2.1,2.1,2.1h3.9c1.2,0,2.1-1,2.1-2.1V74
	C72.6,72.7,71.8,71.8,70.7,71.8z M13.6,78c0,0.2-0.2,0.4-0.4,0.4H9.3c-0.2,0-0.4-0.2-0.4-0.4v-3.9c0-0.2,0.2-0.4,0.4-0.4h3.9
	c0.2,0,0.4,0.2,0.4,0.4V78z M70.9,77.9c0,0.2-0.2,0.4-0.4,0.4h-3.7c-0.2,0-0.4-0.2-0.4-0.4v-3.9c0-0.2,0.2-0.4,0.4-0.4h3.7
	c0.2,0,0.4,0.2,0.4,0.4V77.9z"/>
</svg>
