<?xml version="1.0" encoding="utf-8"?>
<!-- Generator: Adobe Illustrator 21.1.0, SVG Export Plug-In . SVG Version: 6.00 Build 0)  -->
<svg version="1.1" id="Layer_1" xmlns="http://www.w3.org/2000/svg" xmlns:xlink="http://www.w3.org/1999/xlink" x="0px" y="0px"
	 width="90px" height="82px" viewBox="0 0 90 82" style="enable-background:new 0 0 90 82;" xml:space="preserve">
<style type="text/css">
	.st0{fill:#FFFFFF;}
</style>
<path class="st0" d="M88.4,27.9C88.4,13.1,76.3,1,61.5,1C55.2,1,49.4,3.1,45,6.7C40.3,3.1,34.6,1,28.5,1C13.7,1,1.6,13.1,1.6,27.9
	c0,11,6.8,20.7,16.3,24.8c0,0.4,0,0.8,0,1.5C17.9,68.9,30,81,44.8,81s26.9-12.1,26.9-26.9c0-0.4,0-0.8,0-1.3
	C81.4,48.8,88.4,39.1,88.4,27.9z M3.7,27.9c0-13.8,11.2-24.8,24.8-24.8c5.5,0,10.8,1.9,15,5.1c-5.3,4.9-8.7,11.9-8.7,19.7
	c0,0.4,0,0.8,0,1.3C26,32.7,19.6,40.8,18.3,50.5C9.7,46.3,3.7,37.8,3.7,27.9z M53.3,27.9c0,0.2,0,0.4,0,0.6
	c-2.8-0.8-5.5-1.3-8.5-1.3c-2.8,0-5.5,0.4-7.8,1.3c0-0.2,0-0.2,0-0.4c0-7.2,3.2-13.8,8.3-18.4C50.1,13.9,53.3,20.5,53.3,27.9z
	 M45,46.1c-4.4-4-7.4-9.5-8-15.7c2.5-0.8,5.1-1.3,7.8-1.3c3,0,5.7,0.6,8.3,1.5C52.4,36.8,49.4,42.3,45,46.1z M54.9,31.5
	c7.8,3.6,13.3,11,14.4,19.9c-2.5,0.8-5.1,1.3-7.8,1.3c-5.5,0-10.8-1.9-15-5.1C51.1,43.3,54.1,37.8,54.9,31.5z M43.3,47.6
	c-4.2,3.2-9.3,5.1-15,5.1c-3,0-5.7-0.6-8.3-1.5c1.1-8.9,6.8-16.5,14.8-19.9C35.7,37.6,38.9,43.3,43.3,47.6z M69.6,53.9
	c0,13.8-11.2,24.8-24.8,24.8C31,78.7,20,67.5,20,53.9c0-0.2,0-0.4,0-0.6c2.8,0.8,5.5,1.3,8.5,1.3c6.3,0,12.1-2.1,16.5-5.7
	c4.7,3.6,10.4,5.7,16.5,5.7c2.8,0,5.5-0.4,7.8-1.3C69.6,53.7,69.6,53.9,69.6,53.9z M71.5,50.5C70.2,41,63.8,33,55.4,29.1
	c0-0.4,0-0.8,0-1.5c0-7.8-3.4-14.8-8.7-19.7c4.2-3.2,9.3-5.1,15-5.1c13.8,0,24.8,11.2,24.8,24.8C86.3,38,80.1,46.7,71.5,50.5z
	 M79.3,22.6C77,14.8,69.8,9.5,61.5,9.5c-0.6,0-1.1,0.4-1.1,1.1c0,0.6,0.4,1.1,1.1,1.1c7.2,0,13.5,4.9,15.7,11.6
	c0.2,0.4,0.6,0.8,1.1,0.8h0.2C79.1,23.6,79.5,23,79.3,22.6z M19.4,10.9c-7.6,3-12.3,10.8-11.6,18.8c0,0.6,0.4,1.1,1.1,1.1l0,0
	c0.6,0,1.1-0.6,1.1-1.1c-0.6-7.2,3.6-14,10.4-16.7c0.6-0.2,0.8-0.8,0.6-1.3C20.4,10.9,20,10.7,19.4,10.9z M52,70
	c-6.3,3.4-14.4,2.1-19.3-3c-0.4-0.4-1.1-0.4-1.5,0c-0.4,0.4-0.4,1.1,0,1.5c3.6,3.6,8.3,5.5,13.1,5.5c3,0,5.9-0.6,8.7-2.1
	c0.4-0.2,0.6-0.8,0.4-1.5C53,69.8,52.4,69.6,52,70z"/>
</svg>
