<?xml version="1.0" encoding="utf-8"?>
<!-- Generator: Adobe Illustrator 21.1.0, SVG Export Plug-In . SVG Version: 6.00 Build 0)  -->
<svg version="1.1" id="Layer_1" xmlns="http://www.w3.org/2000/svg" xmlns:xlink="http://www.w3.org/1999/xlink" x="0px" y="0px"
	 width="80px" height="82px" viewBox="0 0 80 82" style="enable-background:new 0 0 80 82;" xml:space="preserve">
<style type="text/css">
	.st0{fill:#1B1D2C;}
</style>
<path class="st0" d="M33,6.9h-5c-0.6,0-1-0.4-1-1s0.4-1,1-1h5c0.6,0,1,0.4,1,1S33.5,6.9,33,6.9z M29.9,76.8c-2.5,0-4.6-2.1-4.6-4.6
	s2.1-4.6,4.6-4.6s4.6,2.1,4.6,4.6S32.6,76.8,29.9,76.8z M29.9,69.6c-1.5,0-2.7,1.1-2.7,2.7s1.1,2.7,2.7,2.7s2.7-1.1,2.7-2.7
	S31.4,69.6,29.9,69.6z M74.1,24.8H59V6.3c0-3-2.5-5.3-5.3-5.3H7.2c-3,0-5.3,2.5-5.3,5.3v68.2c0,3,2.5,5.3,5.3,5.3h38.9l0,0
	c0.8,0.8,1.7,1.1,2.9,1.1h25c2.3,0,4.2-1.9,4.2-4.2v-48C78.1,26.7,76.2,24.8,74.1,24.8z M3.8,74.5V6.3c0-1.9,1.5-3.4,3.4-3.4h46.5
	c1.9,0,3.4,1.5,3.4,3.4v18.5h-4V12.6c0-1.7-1.5-3.2-3.2-3.2H11c-1.7,0-3.2,1.5-3.2,3.2v50.5c0,1.7,1.5,3.2,3.2,3.2H45V77
	c0,0.4,0,0.8,0.2,1H7.4C5.3,78,3.8,76.4,3.8,74.5z M51.2,24.8H49c-2.3,0-4.2,1.9-4.2,4.2v35.6H10.9c-0.8,0-1.3-0.6-1.3-1.3V12.8
	c0-0.8,0.6-1.3,1.3-1.3h38.9c0.8,0,1.3,0.6,1.3,1.3v12H51.2z M45.3,78.9C45.3,78.9,45.5,79.1,45.3,78.9
	C45.5,79.1,45.3,78.9,45.3,78.9z M76.2,77c0,1.1-1,2.3-2.3,2.3H49c-1.1,0-2.3-1-2.3-2.3v-6.3h29.5V77z M76.2,68.8H46.7V34.1h29.5
	V68.8z M76.2,32.2H46.7V29c0-1.1,1-2.3,2.3-2.3h25c1.1,0,2.3,1,2.3,2.3L76.2,32.2z M62.3,73.4c1.2,0,2.1,0.9,2.1,2.1
	c0,1.2-0.9,2.1-2.1,2.1s-2.1-0.9-2.1-2.1C60.2,74.3,61.1,73.4,62.3,73.4z"/>
</svg>
