<?xml version="1.0" encoding="utf-8"?>
<!-- Generator: Adobe Illustrator 21.1.0, SVG Export Plug-In . SVG Version: 6.00 Build 0)  -->
<svg version="1.1" id="Layer_1" xmlns="http://www.w3.org/2000/svg" xmlns:xlink="http://www.w3.org/1999/xlink" x="0px" y="0px"
	 width="80px" height="82px" viewBox="0 0 80 82" style="enable-background:new 0 0 80 82;" xml:space="preserve">
<style type="text/css">
	.st0{fill:#1B1D2C;}
</style>
<path class="st0" d="M78.6,55l-10.2-6.5l9.8-6.2c1.1-0.8,1.1-2.3,0-2.8l-9.5-6.3l9.7-6.1c1.1-0.8,1.1-2.3,0-2.8L43.2,1.9
	C42.2,1.4,41.1,1,39.9,1c-1.1,0-2.3,0.4-3.2,0.9L1.4,24.3c-1.1,0.8-1.1,2.3,0,2.8l9.7,6.1l-9.9,6.3c-1.1,0.8-1.1,2.3,0,2.8
	l35.3,22.2c0.9,0.6,2.1,0.9,3.2,0.9s2.3-0.4,3.2-0.9l23.7-14.9l10.7,6.7l-35.1,22c-0.6,0.4-1.3,0.6-2.1,0.6s-1.5-0.2-2.1-0.6L3,56.4
	l10.2-6.4l-1.7-1.1L1.6,55c-1.1,0.8-1.1,2.3,0,2.8l35.3,22.2c0.9,0.6,2.1,0.9,3.2,0.9s2.3-0.4,3.2-0.9l35.3-22.2
	C79.7,57.1,79.7,55.6,78.6,55z M74.6,39.5l2.8,1.7l-2.8,1.5V39.5z M72.7,44l-2.8,1.8v-9.3l2.8,1.8V44z M3,25.6L38,3.5
	c0.6-0.4,1.3-0.6,2.1-0.6s1.5,0.2,2.1,0.6l35.1,22.2l-35.1,22c-0.6,0.4-1.3,0.6-2.1,0.6S38.6,48,38,47.6L3,25.6z M2.8,41.2l3-1.9
	v3.7L2.8,41.2z M10.7,36.5v9.7l-2.8-1.9v-6l3.4-2.1L10.7,36.5z M15.7,49l-3-1.9V34.9l0.8-0.4l2.3,1.3V49z M16,36.1l4.4,2.7v13
	l-4-2.4l0.9,0.6V37L16,36.1z M25,54.8l-2.8-1.9V39.9l4.5,2.8l-1.5-0.9L25,54.8z M29.9,57.9L27,56V42.9l2.8,1.9V57.9z M30.8,45.7
	l3.6,2.3v13.1l-2.8-1.9V46.3L30.8,45.7z M38.2,63.2l-1.5-0.9V49.2l0.6,0.3c0.8,0.4,1.5,0.8,2.3,0.8v13.3c0.2,0,0.6,0.2,0.8,0.2
	C39.5,63.7,38.8,63.6,38.2,63.2z M42.4,63.2c-0.4,0.3-0.9,0.4-1.4,0.5c0.1,0,0.2-0.1,0.3-0.1V50.3c0.8-0.2,1.5-0.4,2.1-0.8l0.8-0.5
	v13L42.4,63.2z M46.2,60.7V47.6l2.8-1.8v13L46.2,60.7z M53.8,55.8l-2.8,1.9V44.6l2.8-1.9V55.8z M58.3,52.9l-2.8,1.8v-13L54,42.7
	l4.4-2.8V52.9z M63.2,37l-0.2,12.9l-2.8,1.9V38.8l4.4-2.7L63.2,37z M65.1,35.9l3.4-2.1l-1.3,0.9l0.9,0.6v11.8H68L65.1,49V35.9z"/>
</svg>
